<?xml version="1.0" encoding="UTF-8"?>
<svg id="Capa_1" xmlns="http://www.w3.org/2000/svg" version="1.1" viewBox="0 0 841.89 595.28">
  <defs>
    <style>
      .st0 {
        fill: #1d1d1b;
      }
    </style>
  </defs>
  <g>
    <g>
      <path class="st0" d="M354.88,195.74v-12.55c0-.47.23-.78.72-.78s.7.3.7.74v12.62c0,.42-.23.76-.7.76s-.72-.34-.72-.79Z"/>
      <path class="st0" d="M370.41,195.75v-11.96c0-.91.19-1.38,1.04-1.38.68,0,1.04.47,1.46,1.15l5.49,8.86c.44.72.89,1.46,1.36,2.4-.09-.93-.23-3.2-.23-4.5v-7.15c0-.45.25-.74.74-.74s.68.3.68.74v12.3c0,.49-.13,1.06-.83,1.06-.62,0-.87-.38-1.87-1.99l-5.43-8.69c-.38-.61-.72-1.23-1.17-1.95.15.93.17,2.52.17,4.52v7.32c0,.45-.23.78-.68.78-.51,0-.72-.32-.72-.78Z"/>
      <path class="st0" d="M395.07,195.77v-11.87c0-1.02.28-1.5,1.27-1.5.76,0,.98.45,1.29,1.15l2.78,6.59c.49,1.19.83,2.1.98,2.61.13-.51.49-1.42.98-2.61l2.78-6.59c.3-.7.53-1.15,1.31-1.15.97,0,1.25.47,1.25,1.5v11.87c0,.42-.23.76-.7.76s-.72-.34-.72-.76v-6.45c0-2.31.08-4.32.13-5.49l-3.94,9.25c-.25.59-.38,1.14-1.1,1.14s-.87-.53-1.12-1.14l-3.94-9.25c.09,1.15.13,3.18.13,5.49v6.45c0,.42-.23.76-.7.76s-.7-.34-.7-.76Z"/>
      <path class="st0" d="M420.94,189.43c0-4.45,3.1-7.12,6.79-7.12s6.78,2.67,6.78,7.12-3.1,7.17-6.78,7.17-6.79-2.76-6.79-7.17ZM433.09,189.43c0-3.73-2.46-5.85-5.36-5.85s-5.38,2.12-5.38,5.85,2.48,5.92,5.38,5.92,5.36-2.19,5.36-5.92Z"/>
      <path class="st0" d="M447.73,195.75v-12.49c0-.51.21-.78.7-.78h3.03c2.93,0,4.85,1.08,4.85,3.71,0,1.14-.44,2.5-2.19,3.01,1.84.19,3.12,1.31,3.12,3.24,0,2.52-1.74,4.03-4.92,4.03h-3.86c-.4,0-.72-.23-.72-.72ZM454.9,186.27c-.02-2.33-2.03-2.55-3.82-2.55h-1.46c-.44,0-.51.15-.51.49v4.58h2.74c.72,0,3.05-.15,3.05-2.52ZM455.79,192.37c-.02-1.42-.79-2.44-3.54-2.44h-3.14v5.3h3.37c2.54,0,3.33-1.57,3.31-2.86Z"/>
      <path class="st0" d="M470.46,195.74v-12.55c0-.47.23-.78.72-.78s.7.3.7.74v12.62c0,.42-.23.76-.7.76s-.72-.34-.72-.79Z"/>
      <path class="st0" d="M485.99,195.72v-12.55c0-.45.23-.76.66-.76.53,0,.74.28.74.72v11.72c0,.19.06.3.27.3h5.3c.49,0,.7.28.68.64,0,.34-.21.66-.7.66h-6.28c-.44,0-.66-.25-.66-.74Z"/>
      <path class="st0" d="M506.07,195.74v-12.55c0-.47.23-.78.72-.78s.7.3.7.74v12.62c0,.42-.23.76-.7.76s-.72-.34-.72-.79Z"/>
      <path class="st0" d="M520.08,195.89c0-.3.19-.68.49-1.44l4.03-10.13c.49-1.23.68-1.97,1.74-1.97s1.17.74,1.67,1.97l4.07,10.14c.28.74.49,1.12.49,1.42,0,.45-.4.7-.76.7-.57,0-.68-.4-1.1-1.57l-1.08-2.93h-6.64l-1.06,2.93c-.42,1.17-.55,1.57-1.1,1.57-.36,0-.76-.25-.76-.7ZM529.18,190.91l-1.17-2.95-1.68-4.43-1.7,4.43-1.15,2.95h5.72Z"/>
      <path class="st0" d="M545.23,195.72v-12.45c0-.49.21-.78.68-.78h3.96c3.25,0,4.67,1.63,4.67,3.96s-1.38,3.6-3.58,3.99c.08.34.25,1.14.7,2.01.57,1.1,1.38,2.18,2.61,2.71.38.17.64.34.64.78s-.32.64-.72.64c-.66,0-1.53-.61-2.14-1.19-1.15-1.12-2.06-2.97-2.4-4.85l-3.03.02v5.17c0,.49-.21.81-.68.81-.51,0-.72-.32-.72-.81ZM553.08,186.5c0-1.61-.79-2.73-3.33-2.74h-2.76c-.19,0-.36.11-.36.38v5.13h3.01c1.95,0,3.44-.85,3.44-2.76Z"/>
      <path class="st0" d="M568.1,195.74v-12.55c0-.47.23-.78.72-.78s.7.3.7.74v12.62c0,.42-.23.76-.7.76s-.72-.34-.72-.79Z"/>
      <path class="st0" d="M582.11,195.89c0-.3.19-.68.49-1.44l4.03-10.13c.49-1.23.68-1.97,1.74-1.97s1.17.74,1.67,1.97l4.07,10.14c.28.74.49,1.12.49,1.42,0,.45-.4.7-.76.7-.57,0-.68-.4-1.1-1.57l-1.08-2.93h-6.64l-1.06,2.93c-.42,1.17-.55,1.57-1.1,1.57-.36,0-.76-.25-.76-.7ZM591.21,190.91l-1.17-2.95-1.68-4.43-1.7,4.43-1.15,2.95h5.72Z"/>
    </g>
  </g>
</svg>