<?xml version="1.0" encoding="UTF-8"?>
<svg id="Capa_1" xmlns="http://www.w3.org/2000/svg" version="1.1" viewBox="200 200 450 200">
  <!-- Generator: Adobe Illustrator 30.0.0, SVG Export Plug-In . SVG Version: 2.1.1 Build 123)  -->
  <defs>
    <style>
      .st0 {
        fill: #221657;
      }

      .st1 {
        fill: #ef7d00;
      }
    </style>
  </defs>
  <g>
    <path class="st1" d="M303.62,275.29c-.28-.06-.56-.12-.83-.19-1.9-.45-3.74-1.04-5.53-1.71-.26-.11-.52-.22-.78-.31-1.87-.68-3.88-1.05-5.98-1.05-.67,0-1.33.03-1.98.11-6.02.69-11.1,4.44-13.63,9.67-.03.08-.05.15-.08.22.03-.08.08-.15.11-.23-.21.59-.45,1.17-.73,1.72.03-.09.06-.17.1-.25-.03.1-.08.18-.13.27h0c-.35.73-.74,1.42-1.18,2.08h0c-.89,1.32-1.94,2.51-3.14,3.53.77-.18,1.54-.32,2.33-.42.33-.05.67-.09,1.01-.11.82-.09,1.65-.12,2.49-.12,1.37,0,2.72.1,4.04.3.37.06.74.12,1.1.2,4.83.94,9.18,3.2,12.69,6.39,1.8,1.64,3.37,3.52,4.66,5.6.46.72.88,1.44,1.24,2.21-.21-1.04-.38-2.1-.51-3.17h0c-.24-1.89-.37-3.8-.37-5.75,0-2.97.29-5.89.84-8.71.05-.29.11-.57.17-.85,0-.02.02-.03.03-.05.34-1.6,1.04-3.06,2.01-4.31h0c.63-.83,1.37-1.55,2.2-2.16,1.48-1.1,3.24-1.84,5.17-2.06-1.81-.17-3.58-.45-5.31-.84ZM291.07,281.06c-1.33,0-2.41-1.08-2.41-2.41s1.08-2.41,2.41-2.41,2.41,1.08,2.41,2.41-1.08,2.41-2.41,2.41Z"/>
    <path class="st1" d="M281.48,361.44c0,.57-.49,1.04-1.06,1.04-.14,0-.28-.03-.4-.09h0c-3.68-1.29-7.62-2.04-11.72-2.18-.3-.02-.62-.03-.93-.03-2.3-.03-4.55.14-6.74.5-2.3.36-4.52.92-6.66,1.65-.07.03-.14.06-.22.08-.08,0-.15.02-.23.02-.57,0-1.03-.48-1.03-1.06,0-.3.14-.57.36-.77,0,0,.02-.02.03-.02.06-.03.12-.08.18-.12t0,0c2.26-1.56,5.01-2.46,7.97-2.43.55,0,1.1.04,1.63.12l-5.74-14.19v-.02c-.04-.09-.06-.17-.05-.27.02-.28.19-.5.43-.59l.13-.04,1.67-.58.06-.02c.07-.03.16-.03.23-.03.26.02.48.18.57.41l.05.14,6.18,15.19s.03,0,.04-.02c1.56-.41,3.19-.62,4.88-.6,3.59.04,6.93,1.11,9.73,2.95.05.03.1.05.15.09.03.02.04.03.07.05,0,0,0,0,.02.02.24.18.4.49.4.82Z"/>
    <path class="st1" d="M288.35,341.83c0,.42-.06.82-.18,1.2-.06.21-.15.41-.24.6-.03.07-.07.14-.11.21-.04.09-.1.17-.15.25-.65,1.09-1.68,1.92-2.9,2.33-.1.04-.2.08-.31.09-.05.02-.1.02-.17.02-.5,0-.94-.34-1.07-.81-.03-.1-.05-.21-.05-.32,0-.23.07-.44.19-.63.03-.03.05-.07.08-.1.39-.53.62-1.2.62-1.91,0-.9-.37-1.71-.96-2.3-.23-.23-.5-.43-.78-.57h0c-.07-.04-.14-.08-.21-.1h0s-.08,0-.12,0c-.33,0-.59.25-.61.57,0,.05,0,.1,0,.15v.06c0,.11,0,.23-.02.35-.04.91-.31,1.76-.75,2.51h0c-.27.5-.62.95-1.03,1.34-.13.13-.27.25-.42.37-.1.08-.21.16-.31.23-.64.44-1.37.77-2.17.91-.07.02-.15.03-.23.03-.63,0-1.13-.5-1.13-1.13,0-.38.2-.73.5-.94.07-.04.14-.08.21-.1h0c.5-.3.89-.7,1.13-1.21.19-.37.3-.8.3-1.24,0-.07,0-.15,0-.22,0-.15-.03-.3-.08-.44,0-.06-.02-.12-.03-.17-.1-.22-.31-.37-.56-.37-.02,0-.03,0-.05,0-.04,0-.09,0-.12.02l-2.56.32-2.13.27h-.06s-.52.08-.52.08l-1.55.19-4.38.56c-.09,0-.17,0-.26-.03-.27-.08-.44-.32-.46-.57v-.09s-.16-1.87-.16-1.87v-.03c0-.06,0-.13.03-.19,0-.02,0-.03.02-.04.09-.23.29-.38.52-.42l.11-.02h0l4.02-.52h0l1.09-.14,8.56-1.11c.11-.03.23-.03.34-.04.22-.03.44-.06.67-.07.02,0,.03,0,.05,0,.22-.02.43-.03.66-.03,2.04,0,3.94.55,5.57,1.51,0,0,.02,0,.03.02.13.07.25.15.37.23,0,0,.02,0,.03.02.18.12.35.26.5.42.77.73,1.25,1.77,1.25,2.91Z"/>
    <path class="st1" d="M296.6,312.42c0,5.38-2.3,10.21-5.97,13.58-.02.02-.03.03-.04.03,0,0-.02.02-.02.03h0c-.19.18-.39.36-.6.52-.23.19-.47.37-.7.56-.02.02-.03.03-.05.04-.46.33-.94.65-1.43.96.1-.06.2-.12.3-.17-.06.04-.13.08-.19.12-.13.08-.26.16-.4.23-.17.1-.36.21-.55.31-2.84,1.57-7,3.37-12.18,5.27h0c-2.56.94-5.37,1.91-8.38,2.89-1.25.41-2.55.82-3.87,1.23-6.4,1.98-13.58,3.97-21.19,5.85-10.98,2.71-21.27,4.79-29.8,6.11-4.21.66-7.99,1.13-11.23,1.39,2.44-2.72,5.11-5.21,8.01-7.43.74-.57,1.5-1.12,2.28-1.66,2.16-1.49,4.42-2.84,6.78-4.04.87-.43,1.74-.85,2.64-1.24h0c4.47-.91,8.79-2.26,12.91-4h0s0,0,.02,0c1.32-.57,2.64-1.17,3.91-1.81,4.81-2.4,9.29-5.35,13.37-8.77.43-.36.87-.73,1.3-1.1,1.5-1.31,2.93-2.7,4.31-4.13.61-.63,1.21-1.29,1.78-1.95.64-.71,1.26-1.44,1.86-2.18.11-.14.23-.28.33-.42.83-1.04,1.64-2.1,2.4-3.18-.78.72-1.57,1.43-2.38,2.12-.25.21-.5.43-.75.63-.7.59-1.41,1.17-2.12,1.75-.47.37-.94.75-1.41,1.1-1.8,1.4-3.64,2.73-5.53,4.01-.16.1-.31.22-.48.32-8.78,5.87-18.49,10.47-28.87,13.53,7.73-11.72,17.72-21.82,29.35-29.68.97-.66,1.95-1.3,2.95-1.92h0c2.23-1.4,4.51-2.72,6.84-3.96,1.61-.85,3.24-1.65,4.88-2.43.59.02,1.17.07,1.73.16,1.13.15,2.23.42,3.27.79.08.03.17.06.24.1,1.18.44,2.29,1.03,3.32,1.72h0c1.77,1.21,3.3,2.75,4.47,4.55.11.16.22.32.32.5.12.2.24.4.34.61.74,1.45,1.16,3.1,1.16,4.84,0,3.12-1.34,5.92-3.48,7.86-.12.1-.23.21-.36.31-2.37,2.18-4.86,4.24-7.44,6.19-1.13.86-2.28,1.7-3.44,2.5-.12.09-.24.17-.37.25-.92.63-1.86,1.26-2.8,1.86l-.52.34c-2.08,1.32-4.21,2.57-6.38,3.75-.9.5-1.81.97-2.73,1.43-7.78,3.93-16.1,6.92-24.83,8.85,10.29-1.26,20.12-4.01,29.28-8,.06-.03.12-.05.18-.08,2.46-1.08,4.88-2.25,7.24-3.51,1.36-.71,2.7-1.47,4.02-2.25.91-.53,1.81-1.08,2.7-1.64t.02,0c1.09-.69,2.17-1.39,3.23-2.12.56-.37,1.1-.76,1.64-1.15,0,0,.02-.02.03-.02,1.3-.91,2.57-1.86,3.81-2.84.33-.26.66-.52.99-.78,0,0,.02-.02.02-.02,3.2-2.74,5.23-6.82,5.23-11.36,0-.52-.03-1.03-.08-1.53h0c0-.09-.02-.17-.03-.24h0c-.62-5.34-4.05-9.81-8.78-11.91-.16-.08-.31-.14-.48-.21-.84-.34-1.73-.61-2.65-.79-.25-.05-.51-.1-.77-.13.24-.04.48-.08.72-.1.85-.11,1.72-.17,2.6-.17.32,0,.64,0,.96.03,5.49.24,10.41,2.64,13.96,6.36.5.52.97,1.07,1.4,1.64.1.13.2.25.3.38.89,1.19,1.64,2.49,2.24,3.86.17.36.31.71.45,1.08.46,1.21.8,2.48,1.03,3.79.12.84.18,1.71.18,2.6Z"/>
  </g>
  <g>
    <path class="st0" d="M325.44,361.6v-14.59c0-.55.26-.9.84-.9s.81.35.81.86v14.68c0,.48-.26.88-.81.88s-.84-.4-.84-.92Z"/>
    <path class="st0" d="M343.5,361.63v-13.91c0-1.06.22-1.61,1.21-1.61.79,0,1.21.55,1.69,1.34l6.38,10.3c.51.84,1.03,1.69,1.58,2.79-.11-1.08-.26-3.72-.26-5.24v-8.32c0-.53.29-.86.86-.86s.79.35.79.86v14.3c0,.57-.15,1.23-.97,1.23-.73,0-1.01-.44-2.18-2.31l-6.32-10.1c-.44-.7-.84-1.43-1.36-2.27.18,1.08.2,2.93.2,5.26v8.51c0,.53-.26.9-.79.9-.59,0-.84-.37-.84-.9Z"/>
    <path class="st0" d="M372.17,361.65v-13.8c0-1.19.33-1.74,1.47-1.74.88,0,1.14.53,1.5,1.34l3.23,7.66c.57,1.39.97,2.44,1.14,3.04.15-.59.57-1.65,1.14-3.04l3.23-7.66c.35-.81.62-1.34,1.52-1.34,1.12,0,1.45.55,1.45,1.74v13.8c0,.48-.26.88-.81.88s-.84-.4-.84-.88v-7.5c0-2.68.09-5.02.15-6.38l-4.58,10.76c-.29.68-.44,1.32-1.28,1.32s-1.01-.62-1.3-1.32l-4.58-10.76c.11,1.34.15,3.7.15,6.38v7.5c0,.48-.26.88-.81.88s-.81-.4-.81-.88Z"/>
    <path class="st0" d="M402.24,354.28c0-5.17,3.61-8.27,7.9-8.27s7.88,3.1,7.88,8.27-3.61,8.34-7.88,8.34-7.9-3.21-7.9-8.34ZM416.36,354.28c0-4.33-2.86-6.8-6.23-6.8s-6.25,2.46-6.25,6.8,2.88,6.89,6.25,6.89,6.23-2.55,6.23-6.89Z"/>
    <path class="st0" d="M433.39,361.63v-14.52c0-.59.24-.9.81-.9h3.52c3.41,0,5.63,1.25,5.63,4.31,0,1.32-.51,2.9-2.55,3.5,2.13.22,3.63,1.52,3.63,3.76,0,2.93-2.02,4.69-5.72,4.69h-4.49c-.46,0-.84-.26-.84-.84ZM441.73,350.6c-.02-2.71-2.35-2.97-4.44-2.97h-1.69c-.51,0-.59.18-.59.57v5.33h3.19c.84,0,3.54-.18,3.54-2.93ZM442.76,357.69c-.02-1.65-.92-2.84-4.11-2.84h-3.65v6.16h3.92c2.95,0,3.87-1.83,3.85-3.32Z"/>
    <path class="st0" d="M459.81,361.6v-14.59c0-.55.26-.9.84-.9s.81.35.81.86v14.68c0,.48-.26.88-.81.88s-.84-.4-.84-.92Z"/>
    <path class="st0" d="M477.87,361.58v-14.59c0-.53.26-.88.77-.88.62,0,.86.33.86.84v13.62c0,.22.07.35.31.35h6.16c.57,0,.81.33.79.75,0,.4-.24.77-.81.77h-7.31c-.51,0-.77-.29-.77-.86Z"/>
    <path class="st0" d="M501.22,361.6v-14.59c0-.55.26-.9.84-.9s.81.35.81.86v14.68c0,.48-.26.88-.81.88s-.84-.4-.84-.92Z"/>
    <path class="st0" d="M517.5,361.78c0-.35.22-.79.57-1.67l4.69-11.77c.57-1.43.79-2.29,2.02-2.29s1.36.86,1.94,2.29l4.73,11.79c.33.86.57,1.3.57,1.65,0,.53-.46.81-.88.81-.66,0-.79-.46-1.28-1.83l-1.25-3.41h-7.72l-1.23,3.41c-.48,1.36-.64,1.83-1.28,1.83-.42,0-.88-.29-.88-.81ZM528.08,355.99l-1.36-3.43-1.96-5.15-1.98,5.15-1.34,3.43h6.64Z"/>
    <path class="st0" d="M546.73,361.58v-14.48c0-.57.24-.9.79-.9h4.6c3.78,0,5.43,1.89,5.43,4.6s-1.61,4.18-4.16,4.64c.09.4.29,1.32.81,2.33.66,1.28,1.61,2.53,3.04,3.15.44.2.75.4.75.9s-.37.75-.84.75c-.77,0-1.78-.7-2.49-1.39-1.34-1.3-2.4-3.46-2.79-5.63l-3.52.02v6.01c0,.57-.24.95-.79.95-.59,0-.84-.37-.84-.95ZM555.87,350.87c0-1.87-.92-3.17-3.87-3.19h-3.21c-.22,0-.42.13-.42.44v5.96h3.5c2.27,0,4-.99,4-3.21Z"/>
    <path class="st0" d="M573.33,361.6v-14.59c0-.55.26-.9.84-.9s.81.35.81.86v14.68c0,.48-.26.88-.81.88s-.84-.4-.84-.92Z"/>
    <path class="st0" d="M589.61,361.78c0-.35.22-.79.57-1.67l4.69-11.77c.57-1.43.79-2.29,2.02-2.29s1.36.86,1.94,2.29l4.73,11.79c.33.86.57,1.3.57,1.65,0,.53-.46.81-.88.81-.66,0-.79-.46-1.28-1.83l-1.25-3.41h-7.72l-1.23,3.41c-.48,1.36-.64,1.83-1.28,1.83-.42,0-.88-.29-.88-.81ZM600.2,355.99l-1.36-3.43-1.96-5.15-1.98,5.15-1.34,3.43h6.64Z"/>
  </g>
  <g>
    <path class="st0" d="M604.04,288.64v6.16l-26.94,28.73h26.94v6.16h-35.56v-6.16l26.94-28.73h-26.94v-6.16h35.56Z"/>
    <g>
      <path class="st0" d="M325.27,271.94h7.26v25.24h35.14v-25.24h7.26v57.74h-7.26v-25.24h-35.14v25.24h-7.26v-57.74Z"/>
      <g>
        <path class="st0" d="M403.94,288.2c-27.78,0-27.78,41.47,0,41.47s27.78-41.47,0-41.47ZM403.94,322.37c-17.91,0-18.33-26.95,0-26.95s17.91,26.95,0,26.95Z"/>
        <path class="st0" d="M540.29,288.2c-27.78,0-27.78,41.47,0,41.47,10.7,0,17.25-6.14,19.74-13.85h-8.29c-1.91,3.82-5.89,6.55-11.45,6.55-8.71,0-13.35-6.55-13.44-13.1h.05c-.02-.63-.01-1.29.06-1.99.13-1.31.42-2.45.75-3.4h-.04c1.66-4.64,5.81-8.46,12.61-8.46,5.39,0,10.62,2.65,11.94,8.46h-17.14c-.33.95-.62,2.09-.76,3.4-.07.7-.08,1.35-.06,1.99h25.83c1-12.44-7.63-21.07-19.82-21.07Z"/>
        <path class="st0" d="M514.68,285.79v-.03h-.01s0,.02.01.03Z"/>
        <path class="st0" d="M522.05,285.76h-.01s0,.02.01.03c0,0,0-.02,0-.03Z"/>
        <path class="st0" d="M535.72,302.34s0,.02,0,.02h0v-.02Z"/>
        <path class="st0" d="M493.22,288.13c-.23,0-.44,0-.7,0-.25,0-.46,0-.7,0-8.87,0-17.91,6.55-17.91,19.57v21.98h7.21v-21.98c0-8.72,5.61-13.11,11.4-13.26,5.78.15,11.4,4.53,11.4,13.26v21.98h7.21v-21.98c0-13.02-9.04-19.57-17.91-19.57Z"/>
        <path class="st0" d="M453.65,288.13c-.67-.01-1.17-.01-1.53,0-.36,0-.72,0-1.08,0-1.95,0-3.9.33-5.76.96-6.64,2.24-12.15,8.44-12.15,18.61v21.98h7.17v-21.56c0-.63.04-1.24.1-1.83.79-7.76,6.56-11.77,12.26-11.77,3.23,0,6.47,1.33,8.71,3.98l5.14-4.98c-.95-1-1.99-1.85-3.09-2.56-3.93-2.55-8.01-2.75-9.77-2.83Z"/>
      </g>
    </g>
  </g>
</svg>